<svg width="14" height="14" viewBox="0 0 14 14" fill="none" xmlns="http://www.w3.org/2000/svg">
<path d="M10.3602 7.00002C10.3602 7.61858 10.8616 8.12002 11.4802 8.12002C12.0987 8.12002 12.6002 7.61858 12.6002 7.00002C12.6002 6.38147 12.0987 5.88002 11.4802 5.88002C10.8616 5.88002 10.3602 6.38147 10.3602 7.00002ZM10.3602 7.00002H7.35018M10.3602 2.52002C10.3602 3.13858 10.8616 3.64002 11.4802 3.64002C12.0987 3.64002 12.6002 3.13858 12.6002 2.52002C12.6002 1.90147 12.0987 1.40002 11.4802 1.40002C10.8616 1.40002 10.3602 1.90147 10.3602 2.52002ZM10.3602 2.52002H3.8499M10.3602 11.48C10.3602 12.0986 10.8616 12.6 11.4802 12.6C12.0987 12.6 12.6002 12.0986 12.6002 11.48C12.6002 10.8615 12.0987 10.36 11.4802 10.36C10.8616 10.36 10.3602 10.8615 10.3602 11.48ZM10.3602 11.48H7.14018C6.8309 11.48 6.58018 11.2293 6.58018 10.92V3.08002M3.6399 2.52002C3.6399 3.13858 3.13846 3.64002 2.5199 3.64002C1.90134 3.64002 1.3999 3.13858 1.3999 2.52002C1.3999 1.90147 1.90134 1.40002 2.5199 1.40002C3.13846 1.40002 3.6399 1.90147 3.6399 2.52002Z" stroke="#8D8E99" stroke-width="1.2" stroke-linecap="round"/>
</svg>
